<?xml version="1.0" encoding="utf-8"?>
<!-- Generator: Adobe Illustrator 18.1.1, SVG Export Plug-In . SVG Version: 6.00 Build 0)  -->
<svg version="1.1" id="Layer_1" xmlns="http://www.w3.org/2000/svg" xmlns:xlink="http://www.w3.org/1999/xlink" x="0px" y="0px"
	 viewBox="0 0 996 1007" enable-background="new 0 0 996 1007" xml:space="preserve">
<path fill="#FFFFFF" d="M196.2,267.5c0-15.7,0.2-31.3-0.1-47c-0.1-4.7,1.3-6.3,6.2-6.3c29,0.2,58,0.2,87-0.1c3.6,0,7.7-1.3,10.6-3.3
	c42.8-29.2,89.6-48.7,140.5-58.4c28.8-5.5,57.8-7.4,86.9-5.8c68.5,3.9,131.3,25.2,188.1,63.9c3.2,2.2,7.6,3.5,11.5,3.6
	c29.8,0.3,59.6,0.3,89.5,0.1c4.8,0,6.3,1.4,6.2,6.2c-0.5,32.3-0.8,64.6-1,96.9c0,3.3,1,7,2.7,9.8c23.2,39.5,38.4,81.8,46,126.9
	c4.6,27,6.1,54.4,3.9,81.6c-9.9,122.9-67,218.5-169.6,286.5c-40.6,26.9-85.6,43.6-133.5,52.1c-27,4.8-54.3,6.5-81.5,5
	c-75.1-4.2-143.3-28.5-203.1-74.3c-69.7-53.4-115.2-123-135.4-208.5c-4.5-19.1-7-38.9-8.5-58.6c-5.3-68.6,8.7-133.3,40.2-194.4
	c2.1-4,3.9-8.2,6.5-11.8c6-8.1,7.5-17,7.1-26.8C195.8,292.5,196.2,280,196.2,267.5z M510.3,336.6c2.9,2.4,4.8,3.7,6.5,5.4
	c43.3,43.6,63.6,95.5,56.8,157.1c-5,44.4-24.6,81.8-56.6,112.8c-6.5,6.2-6.6,6.3,0.4,11.6c41.3,31.4,87.8,44.5,139.3,37
	c45.9-6.7,84.9-27.3,114.4-63.4c42-51.3,55-109.8,36.5-173.7c-23.8-82.3-104.5-138.7-192.9-130c-32.2,3.2-61.5,13.7-88.3,31.7
	C521.3,328.5,516.4,332.2,510.3,336.6z M562.9,522.3c0.4-0.9,0.8-1.8,1.1-2.8c0.3-0.8,0.4-1.6,0.6-2.4c6.4-27.9,6.3-55.7-0.9-83.5
	c-26-100.1-125.3-157.6-225-130.3C246.6,328.7,189.3,423.2,210.7,516c13.9,60.2,50,102.9,106.4,127.8c33.3,14.7,68.3,18,104.1,11.5
	c25.9-4.7,49.7-14.6,71.2-30c2.7-1.9,4-3.5,0.3-5.9c-0.9-0.6-1.7-3.1-1.5-3.2c1.3-1,3.1-2.4,4.4-2c8,2.2,17.4-2.5,20.2-10
	c-3.7,0.8-7.8,1.8-11.9,2.5c-5.8,1.1-7.5-0.3-7.8-6.2c-0.2-3.1,0-6.2,0-9.7c-1.7,0.3-3.1,0.5-4.3,0.7c-6-12.1-8-13.1-21.4-11.1
	c-3,0.4-5.9,1.2-8.9,1.1c-2.7-0.1-5.9-1-4.7-4.7c2.1-6.6,4.3-13.2,7.3-19.4c1.4-2.8,4.5-5.4,7.4-6.8c6.2-3.1,13.1-4.7,18.1-9.9
	c1-1,2.6-1.5,3.9-2.1c3.1-1.5,6.4-2.6,9.4-4.4c4.7-2.8,9.3-1.8,14.3-1.2c-3.3,11.4-3.2,11.7,4.4,16.7c2.8-5.3,5.5-10.5,8.5-16.3
	c0.6,1.2,1.1,1.7,1.1,2.3c1.1,9.5,2,19.1,3.1,28.6c1.2,9.8-1.5,18.4-8.1,25.8c-0.8,0.9-1.2,2-1.8,3c0.4,0.3,0.7,0.6,1.1,0.9
	c1-0.9,2.1-1.8,2.9-2.8c14-17.3,24.4-36.5,31.3-57.6c0.8-2.5-0.1-5.5-0.1-8.3c0-1.2,0.3-2.5,0.5-3.7
	C561.2,521.8,562,522.1,562.9,522.3z M195.9,340c-52.1,84.4-71.3,226.5,1.3,351.6c40.1,69.1,97,119.6,170.3,151.3
	c39.8,17.2,81.6,26.6,125.1,27.8c-0.8-1-1.7-1.6-2.7-1.9c-6.5-2.1-13-4.2-19.5-6.3c-43.5-13.9-84.8-32.5-123.6-56.7
	c-47.4-29.6-88.2-66-116.6-114.9c-21.3-36.6-32.9-76.2-33.4-118.3c-0.9-75.3-0.4-150.6-0.5-225.9C196.2,344.5,196,342.2,195.9,340z
	 M822,344c-0.2,1.2-0.4,2.5-0.4,3.7c-0.3,19.6-0.7,39.3-0.9,58.9c-0.4,41.8-0.4,83.6-1.1,125.4c-0.3,18.9-1.2,37.9-3,56.8
	c-3.1,31.4-11.9,61.3-25.3,89.9c-23.6,50.7-60.7,89.7-106.6,120.5c-45.3,30.4-95,51.4-147.8,65.3c-7.1,1.9-14.3,3.7-21.5,5.5
	c0.1,0.5,0.2,1,0.3,1.5c39.5-0.7,77.9-7.8,115-21.6c78.5-29.3,139.9-79.8,183.2-151.4c45.2-74.6,60.3-155.6,47.4-241.8
	C855.3,416.8,842.5,379.1,822,344z M703.6,213.8c-43.3-31.7-134.2-70.7-244.2-56.5c-43.4,5.6-136.9,40.2-146.4,56.5
	C442.8,213.8,572.5,213.8,703.6,213.8z M424.9,736.3c0.4,0.1,0.8,0.3,1.2,0.4c-0.4,1.3-0.4,2.8-1.1,4c-2.8,4.3-2.5,5.2,2.6,6.7
	c15.8,4.8,35.4-8.4,36.8-24.8c0.5-5.6-2-8.6-7.5-9.1c-1.1-0.1-2.3-0.3-3.4-0.7c-10.7-4.1-21-2.1-29.8,3.9c-5.9,4-12.7,9.3-8.6,18.9
	c1.4,3.2-2.9,8.3-5.6,7.6c-5.3-1.4-10.8-2.4-15.7-4.7c-10.7-4.9-21.9-9.5-31.5-16.1c-14.3-9.9-28.4-20.1-44.6-26.7
	c-1.3-0.5-4.1-0.5-4.4,0.2c-0.7,1.4-0.9,3.9-0.1,5c1.6,2.2,4,3.9,6.1,5.7c4.2,3.5,9.1,6.4,12.5,10.6c4.1,5.1,6.9,11.2,10.2,17
	c3.5,6.2,8.1,11.6,16.2,8.6c2.6-1,6.1-0.6,8.9,0.2c7,2,13.9,4.4,20.8,6.9c13.6,4.8,27.2,9.7,40.9,14.5c1.8,0.6,3.9,0.7,6.1,1
	c-0.3-2.7-0.5-4.4-0.8-6c3.6,3.9,7.4,7.1,10.3,11.1c2.5,3.6,4,7.9,6,11.9c-0.6,0.3-1.1,0.6-1.7,0.9c-1.6-2.6-3.2-5.2-5.2-8.5
	c-1.6,2-3,3.4-4,5c-4.8,7.1-3.2,14.9-0.9,22.1c3.2,10.3,21.2,18.7,31.9,16c4.2-1.1,6.7-3.1,8.2-7.6c4.2-13,0.6-24.2-7.2-34.6
	c-3.7-4.9-8.7-6.9-15-5.7c-1.2,0.2-3.2-0.1-3.7-1c-1.9-2.7-3.3-5.7-5.5-9.7c2.7,2.3,4.5,4.1,6.5,5.5c1.8,1.2,3.9,2.9,5.8,2.7
	c6.8-0.7,11.8,2.2,15.4,7.4c6.7,9.7,16.1,15.7,26.5,20.5c9.3,4.3,18.6,9.1,28.4,12.1c19.2,5.9,37.1-1.3,54.8-7.3
	c9.8-3.3,18-10.7,29.1-10.8c1.2,0,2.9-1.7,3.3-2.9c0.3-0.7-1.2-2.7-2.3-3.2c-2.5-1.1-5.2-2.3-7.9-2.3c-5.1-0.1-10.2,0.8-15.3,0.8
	c-18.2,0.3-34.6-7.4-51.5-12.4c-11.2-3.3-21.8-9-33.1-11.9c-10.8-2.7-21.9-3.1-32.8,1.6c-5,2.2-10.7,1.1-15.9-2.4
	c3.8-1.8,7.8-3.5,11.8-3.8c10.9-0.8,22.1,0.2,32.9-1.5c20.2-3.2,40.3-7.2,60.3-11.9c9.8-2.3,19.4-6.2,28.4-10.7
	c8-4,15.2-9.5,24.2-11.2c1.1-0.2,2.1-1,3.1-1.5c3.1-1.8,3.1-3.7,0-5.5c-5.7-3.3-11.9-3.4-18.3-3.2c-10.3,0.3-20.8,1.1-30.8-0.6
	c-17.2-2.9-34.4-2.8-51.1-0.1c-19.2,3.1-34.4,15.2-48.2,28.5c-3.3,3.2-5.8,7.7-9.5,10.1c-13.4,8.4-27.9,7.1-43.4,3.5
	C420.1,744.1,422.5,740.2,424.9,736.3z M524.8,755.4c0,0.6-0.1,1.1-0.1,1.7c1.4,0.8,2.8,1.6,4.3,2.3c17,7.5,34.2,13.5,53,14.6
	c18.4,1.1,35.6-2.2,50.5-13c10.5-7.6,20.1-16.4,30.1-24.6c1.9-1.5,4.1-3.2,6.4-3.6c2.9-0.6,5.9-1.4,4.9-4.6c-0.6-2-3.9-4.2-6.1-4.4
	c-8.9-1-17.7,0.3-25.8,4c-7.2,3.2-14.5,4.7-22.3,4.1c-12.7-1-24.6,1.7-36.5,6.3c-11.4,4.5-23.3,7.6-35.1,11.2c-3.4,1-7,1.7-10.5,2.5
	c0.1,0.6,0.1,1.3,0.2,1.9c1.8,0.3,3.6,0.9,5.4,0.8c21.2-1.3,42.4-2.7,61.3-3.9C580.1,758.9,552.6,759.1,524.8,755.4z"/>
<path fill="#FFFFFF" d="M80.3,585.7c-6.4,1-12.9,1.9-19.3,2.9c-7.4,1.2-14.7,2.7-22.1,3.8c-3.6,0.5-4.6,1.8-3.5,5.3
	c0.6,2,2.1,5-2.8,5.3c-1.5-7.9-3-15.7-4.4-23.5c-0.1-0.8,0.8-1.8,1.2-2.7c0.8,0.6,1.7,1.2,2.3,2c0.5,0.6,0.6,1.6,0.7,2.4
	c0.1,4.2,2.7,4.8,6.1,4.2c19.5-3.2,39-6.6,58.5-9.6c3.8-0.6,4.8-2.2,4.4-5.6c-0.1-1-0.3-2.1,0-3c0.4-1.3,1.3-2.4,1.9-3.5
	c1,1.1,2.7,2,2.9,3.2c1.9,11.1,3.4,22.3,5.2,33.5c0.5,3.3-1,5.3-3.5,7.1c-8.7,5.9-17.3,11.9-25.9,17.8c-1.3,0.9-2.6,1.9-4.5,3.4
	c1.9,0.8,3,1.5,4.2,1.7c11.2,1.5,22.4,2.6,33.6,4.3c2.2,0.3,5.1,2.1,6,4c4.1,9.3,7.5,18.8,11.4,28.2c1.2,2.9,0.3,4.3-2.7,5.1
	c-0.5-0.8-1.1-1.4-1.4-2.1c-4.5-8.9-2.8-8.6-12.9-5c-17.1,6.1-34.1,12.5-51.2,18.5c-3.9,1.4-4.9,3.1-3.3,6.9c0.8,1.9,3,4.8-2.1,5.8
	c-0.6-1.4-1.3-2.8-1.8-4.3c-4.7-13.3-9.4-26.7-13.9-40.1c-0.4-1.3,0.5-3,0.8-4.5c1.1,1,2.9,1.7,3.2,2.9c1.6,5.4,4.3,5.9,9.2,3.7
	c10.1-4.3,20.5-7.9,30.7-11.9c1.8-0.7,3.5-1.6,5.3-2.4c0-0.5,0-1-0.1-1.5c-4.2-0.5-8.5-1.2-12.7-1.6c-11.9-1.1-23.8-2.2-35.7-3.2
	c-4.4-0.4-6.8-2.3-7.6-6.8c-2-10.6-4.3-8,5.8-14.4c11.4-7.2,22.8-14.5,34.1-21.7c1.6-1,3-2.3,4.5-3.4
	C80.7,586.6,80.5,586.1,80.3,585.7z"/>
<path fill="#FFFFFF" d="M246,105.3c1.2-1.7,1.3-2.3,1.7-2.5c22-12.1,43.8-24.6,66.1-36.2c10.4-5.4,20.2-1.9,26.8,7.3
	c6.1,8.5,5.2,17.9-2.4,26.8c-0.7,0.8-1.3,1.8-2.5,3.5c2.5,0.3,4.4,0.9,6.3,0.8c8.1-0.7,13.5,2.1,17.3,9.5c1.2,2.3,2,5.4,3.9,6.8
	c2.3,1.6,5.6,1.6,8.5,2.3c1.1,0.3,2.4,0.6,3.1,1.3c0.4,0.4-0.3,2.5-0.8,2.7c-9.9,3.1-19.9,6.1-30,8.8c-3.4,0.9-5.9-1.1-7.5-4.3
	c-3-5.8-6.2-11.4-9.3-17.1c-1.9-3.6-4.5-5.2-8.6-3.4c-4.1,1.8-8.3,3.4-12.4,5.1c-2.7,1.1-3.5,2.6-2,5.4c4,7.1,7.9,14.3,11.7,21.5
	c1.5,2.9,3.6,3.1,6.2,1.7c2.8-1.5,4.4-0.7,5,3c-10.1,5.7-20.3,11.5-30.6,17.3c-2.6,1.5-5.1,3.2-7.9,4.3c-1.3,0.5-3.1-0.1-5.6-0.3
	c6.9-7.8,6.8-7.8,2.1-16.2c-8.5-15.3-17.1-30.5-25.5-45.8c-2-3.6-3.8-5.1-7.7-2.4C250.7,106,248.6,105.3,246,105.3z M303.8,76.6
	c-6.4,3.1-12.4,5.9-18.3,8.9c-0.5,0.3-0.4,2.8,0.2,3.9c4,7.5,8.1,14.9,12.4,22.2c0.7,1.1,3.2,2.3,4.2,1.9c4.8-2.3,9.4-4.9,13.8-7.9
	c2.6-1.8,4.4-4.6,2.5-8.2c-2.9-5.4-5.6-10.9-8.9-16.1C308.5,79.3,306.1,78.2,303.8,76.6z"/>
<path fill="#FFFFFF" d="M540.5,962.8c1.3,1.4,2.4,2.7,3.6,3.8c5.2,4.9,8.1,10.9,8.5,18.1c0.2,4.5,2.4,6.5,6.8,6.9
	c1.8,0.1,3.5,1.1,5.3,1.7c-0.1,0.6-0.2,1.2-0.3,1.8c-2,0.4-4,1.2-6,1.3c-8.3,0.5-16.6,0.9-24.9,1.1c-6.1,0.2-9.6-3-10.1-9.1
	c-0.4-5.5-0.6-10.9-0.9-16.4c-0.3-7.5-3.2-10.4-10.7-10.4c-12.7,0-11-1.2-11.2,11.3c-0.1,5.5-0.6,11-0.9,16.4
	c-0.2,2.8,0.3,4.9,3.8,5.2c1,0.1,2,1.6,3,2.4c-1,0.6-2.1,1.7-3.1,1.7c-12.8-0.4-25.6-0.9-38.4-1.6c-1.5-0.1-2.8-1.6-4.3-2.4
	c1.4-0.8,2.9-1.5,4.1-2.5c1.3-1.1,3.5-2.3,3.6-3.6c1.2-19.7,2.1-39.5,3.2-59.2c0.2-3.8-0.9-5.8-4.8-6.5c-1.2-0.2-2.1-2.3-3.2-3.5
	c1.4-0.3,2.8-1,4.2-1c19.4,0.7,38.9,1.5,58.3,2.1c4.1,0.1,8.2-0.2,12.3,0c8.5,0.6,13.5,6,16.6,13.2c3.2,7.4,1.1,14.1-4.2,19.8
	C547.9,956.7,544.3,959.4,540.5,962.8z M511.8,957.1c1,0,2,0,3,0c7.4-0.1,8.5-1.3,8.7-8.9c0.1-4.6,0.5-9.3,0.8-13.9
	c0.5-7.5-1.5-9.7-8.9-9.8c-2.5,0-5,0.1-7.5,0c-3-0.1-4.2,1.4-4.3,4.2c-0.3,6.3-0.9,12.6-1.1,18.9
	C502.3,957.1,502.3,957.1,511.8,957.1z"/>
<path fill="#FFFFFF" d="M978.6,625.4c-1.7,6.4-4.3,17.5-7.4,28.5c-3.1,10.9-6.7,21.6-10.4,32.3c-0.5,1.4-2.4,2.2-3.7,3.3
	c-0.4-1.7-1.5-3.5-1.2-4.9c1.6-6.9,1.8-6.9-5-9.3c-17.4-6-34.9-11.9-52.3-18.1c-4-1.4-6.5-1.5-7.8,3.2c-0.3,1.1-2.1,1.8-3.2,2.7
	c-0.3-1.4-1.2-3.1-0.8-4.3c5.5-18.6,10.7-37.4,17.1-55.8c4.2-12.2,20.9-25.5,40.2-21.7C964,585.2,979.1,601.5,978.6,625.4z
	 M912.5,608.3c-4.7-0.1-7.3,1.3-8,5.3c-0.5,2.6-0.8,5.3-1.5,7.8c-1,3.7,0.4,5.6,3.8,6.8c19.2,6.4,38.5,12.8,57.7,19.2
	c2.8,0.9,4.4,0.3,5.1-2.7c0.9-3.9,2-7.7,3-11.6c1.6-6,0.8-7.8-5.2-9.6c-11.8-3.5-23.6-6.7-35.5-10
	C925.1,611.7,918.4,609.9,912.5,608.3z"/>
<path fill="#FFFFFF" d="M777.3,194.6c-13,0.6-23-5.1-32.1-12.8c-6.2-5.3-12.5-10.5-18.4-16.1c-10.8-10.2-13.3-22.8-9.2-36.6
	c4.2-14.2,12.8-24.5,28.4-26.8c11.8-1.8,22.8,0.3,32.6,7.5c7.3,5.3,14.3,11,22,15.5c12.7,7.4,19,27.5,14.6,41.9
	c-4.8,16.2-18.6,26.9-35.4,27.3C778.8,194.7,777.8,194.6,777.3,194.6z M737.8,164.1c-0.3,7.3,6.1,12.2,13.7,16.1
	c4.8,2.4,11.4,0.2,16-5c2.8-3.1,5.6-6.2,7.8-9.7c5.9-9.2,11.8-18.4,17-28.1c2.5-4.6,1.9-9.8-2.2-13.9c-8.6-8.7-21.4-11.5-30,1.6
	c-6.2,9.5-12.8,18.7-18.8,28.3C739.6,156.6,739,160.5,737.8,164.1z"/>
<path fill="#FFFFFF" d="M123.7,778c-15.1-0.2-26.3-6.7-33.3-20.1c-3.5-6.6-6.6-13.5-10.5-19.9c-13.8-23.2,5-50.9,27-55.5
	c15-3.2,32,4.6,39.5,17.8c3.9,7,7.7,14,11.6,21c11.8,20.9-0.3,49.2-23.5,55.1C131,777.3,127.3,777.5,123.7,778z M102.9,756.9
	c2.4-0.6,5-0.8,7.1-2c12.8-7.7,25.6-15.4,38.1-23.6c2.1-1.4,4.2-5.1,3.9-7.5c-1.4-11.1-10.2-23-23.7-16.6
	c-11.9,5.7-23.2,13-34.3,20.2c-5.6,3.6-8,12.2-6.1,17.2C90.5,751.7,96.5,756.5,102.9,756.9z"/>
<path fill="#FFFFFF" d="M132.7,352.7c0.4,1.7,1.4,3.6,1,4.9c-2,6-4.4,11.8-6.9,17.7c-0.4,0.9-1.7,1.5-2.6,2.2
	c-0.4-1.2-1.4-2.9-1-3.7c2.9-5.3-0.3-6.8-4.5-8.5c-17.2-6.7-34.4-13.5-51.5-20.3c-6.6-2.6-6.6-2.6-9.9,3.8c-0.3,0.6-0.6,1.2-1,1.7
	c-0.2,0.3-0.5,0.4-2,1.5c-0.5-2.2-1.5-4.1-1-5.3c3.9-10.1,7.9-20.1,12.4-29.9c0.9-1.9,3.9-3.5,6.1-3.8c12.8-2,25.6-3.7,38.5-5.4
	c5.4-0.7,10.9-1.3,16.3-2.1c1-0.1,1.9-0.8,3.8-1.6c-2.3-1.4-3.8-2.4-5.3-3.2c-10.1-5.8-20.3-11.5-30.4-17.3
	c-5.8-3.3-5.7-3.3-9.5,2.4c-0.5,0.8-1.2,1.6-1.8,2.4c-3.1-0.6-4.1-1.9-2.4-4.8c3.4-5.9,6.6-11.9,10.2-17.7c0.7-1.1,2.8-1.2,4.3-1.8
	c0.3,0.5,0.5,1,0.8,1.5c-1.5,2.7-3,5.4-4.7,8.7c21.9,12.1,43.4,23.9,65.4,36.1c-4.5,8.2-8.6,15.9-13,23.5c-0.6,1.1-2.4,1.9-3.7,2.1
	c-16.6,2.1-33.3,4.1-49.9,6.2c-2.1,0.3-4.1,0.8-6.4,2.3c1.5,0.8,3.1,1.6,4.7,2.2c11.2,4.3,22.4,8.4,33.5,13c3.6,1.5,5.6,1,6.9-2.6
	c0.4-1.2,1.3-2.3,1.9-3.4C131.4,353,132,352.9,132.7,352.7z"/>
<path fill="#FFFFFF" d="M920.5,707.8c-2.4-1.5-3.7-2.4-5.1-3.1c-10.1-5.1-20.3-10-30.3-15.2c-3.6-1.9-6.1-2.3-7.8,2.1
	c-1.3,3.3-3.3,2.6-5.5,0.1c2.9-5.8,5.8-11.8,8.9-17.7c0.4-0.8,2-1,3.1-1.4c0.3,1.1,1.1,2.6,0.7,3.3c-2.7,4.5-0.1,6,3.5,7.7
	c18.1,8.5,36.1,17.1,54.1,25.7c2.2,1.1,4.4,2.2,6.9,3.4c-3.7,8-7,15.6-10.7,23c-0.7,1.3-2.8,2.4-4.4,2.7c-18.3,3.2-36.7,6.2-55,9.3
	c-1.7,0.3-3.4,0.8-6.8,1.6c12.7,9.6,24.3,18.3,35.5,26.7c4.6-1.1,3.8-8.9,9-7.9c0.5,0.6,0.9,1.2,1.4,1.7
	c-4.9,7.2-9.9,14.4-14.8,21.6c-0.6-0.2-1.3-0.3-1.9-0.5c0.3-1.6,0-3.7,0.9-4.8c3.3-4.1,1.9-6.4-2.1-9c-15.8-10.2-31.4-20.7-47-31.2
	c-3.2-2.2-5.7-3.1-8.3,0.8c-0.5,0.8-2.1,1-3.3,1.4c-0.1-1.3-0.7-2.9-0.1-3.9c3.8-6.8,7.6-13.7,11.9-20.2c1.2-1.8,4.3-2.9,6.7-3.4
	c18.2-3.8,36.5-7.4,54.7-11.1C916.4,709.2,917.9,708.6,920.5,707.8z"/>
<path fill="#FFFFFF" d="M447.5,79.2c-0.3-4.4-0.6-8.8-1.1-13.2c-0.9-9.1-1.8-18.2-3.1-27.2c-0.2-1.2-2.3-2.7-3.7-3.1
	c-2.1-0.7-4.4-0.5-6.6-0.7c0-0.6-0.1-1.2-0.1-1.7c1.1-0.5,2.1-1.3,3.3-1.5c6.4-1.1,12.8-2.2,19.2-2.9c1.3-0.2,2.7,1,4.1,1.6
	c-1,1.2-1.9,3.2-3.1,3.3c-5.7,0.8-5.9,3.9-5.2,8.8c2.5,18.1,4.5,36.2,6.4,54.4c1.1,11.1,0.8,11.1-10,13.1c-2.9,0.5-5.9,1.5-8.8,1.3
	c-2.4-0.2-5.1-1.2-6.9-2.9c-11.4-10.5-22.5-21.3-33.7-32c-2.4-2.2-4.9-4.3-7.3-6.5c-0.4,0.2-0.8,0.4-1.2,0.7c0.3,1.7,0.5,3.3,0.9,5
	c2.8,10.3,5.6,20.5,8.5,30.8c2.1,7.7,2.2,7.7,11,6.9c-1.1,2.1-1.6,4.3-2.7,4.7c-6,1.9-12.1,3.5-18.3,5c-0.9,0.2-2.1-1.2-3.8-2.2
	c8.8-3.8,8.7-3.8,6.4-12.2c-4.9-17.3-9.8-34.6-14.6-51.9c-1.1-3.8-2.1-7.2-7.3-5c-0.7,0.3-2.1-1.2-3.2-1.8c0.6-1,1-2.6,1.8-2.9
	c10.1-2.9,20.1-5.8,30.3-8.2c1.5-0.4,4,1.3,5.4,2.6c12.9,11.8,25.7,23.7,38.5,35.6c1.1,1,2.2,1.8,3.4,2.7
	C446.5,79.5,447,79.3,447.5,79.2z"/>
<path fill="#FFFFFF" d="M168.4,781.6c-2.2,1.2-3.6,1.8-4.7,2.6c-10.1,7.6-20,15.5-30.2,22.9c-3.4,2.5-3.7,4.7-0.9,7.6
	c0.6,0.6,1.3,1.3,1.5,2c0.3,1.1,0.2,2.3,0.3,3.4c-1-0.3-2.3-0.4-2.9-1.1c-2.1-2.4-4-4.9-5.9-7.4c-3.1-4.1-6.3-8.1-9.4-12.2
	c1.9-2.9,3.5-3.2,5.4-0.4c0.8,1.2,1.6,2.8,2.8,3.5c1.2,0.7,3.6,1.3,4.4,0.6c17-13.4,33.9-26.9,50.8-40.4c0.4-0.3,0.5-0.8,0.7-1.1
	c0.1-2.9-6.8-5.1-0.1-8.5c6.2,7.5,12.5,15,18.5,22.7c0.9,1.1,0.6,3.5,0.3,5.1c-3.8,17.9-7.8,35.7-11.7,53.6
	c-0.4,2.1-0.7,4.1-1.3,7.7c2.4-1.9,3.8-2.8,4.9-3.9c8.8-8.7,17.4-17.5,26.2-26c2.6-2.6,3.4-4.6,0.6-7.5c-0.8-0.9-0.6-2.8-0.8-4.2
	c1.4,0.3,3.2,0.2,4.2,1.1c3.7,3.3,7.3,6.9,10.6,10.6c0.9,1,0.7,3,0.4,5.5c-5.3-6.6-8.2-2.8-11.7,0.8c-13.6,14.4-27.5,28.6-41.1,42.9
	c-1.4,1.4-2.2,3.4-3.6,5.7c-7.5-7.5-13.6-13.5-19.5-19.7c-0.9-1-0.7-3.4-0.3-5c4.1-19,8.2-38,12.4-57
	C168,784.6,168.1,783.7,168.4,781.6z"/>
<path fill="#FFFFFF" d="M884.9,213.2c1.4-1,2.5-1.8,4-2.9c5.4,7.4,10.7,14.6,16.2,22.1c-1.2,1.1-2.2,2-4.3,3.9c-0.6-1.2-1-2.1-1.4-3
	c-2.2-4.2-4.6-4.4-8.6-1.5c-16.7,12.1-33.7,23.8-50.5,36c-3.6,2.6-5.5,2.3-8.5-1c-4.2-4.6-4.9-9.6-4.3-15.2
	c1.9-17.2,3.9-34.3,5.7-51.5c0.3-2.8,0-5.6,0-10c-5.6,5.5-10.4,9.9-14.8,14.8c-3.4,3.9-7.2,4.7-12.8,3.4c1.7-1.7,2.8-3,4.1-4.3
	c10.2-10.3,20.4-20.6,30.8-30.7c2.9-2.8,3.2-4.9,0.2-7.8c-1.7-1.7-4.6-3.8-1.4-5.5c7.1,6.4,13.5,12.9,20.6,18.5
	c6.7,5.3,7.2,11.5,5.9,19.3c-2.2,14.4-3.4,28.9-5.2,44.7c2.3-1.3,3.7-2,5-2.9c6.5-4.9,12.9-10,19.6-14.7c3.7-2.6,5.1-5,1.4-8.6
	C886,215.6,885.7,214.6,884.9,213.2z"/>
<path fill="#FFFFFF" d="M398,983.5c2.7,0.2,5.4,0.2,8,0.6c3.4,0.5,4.7-0.7,4.1-4.1c-0.5-3.1-1.2-6.2-1.3-9.4c-0.1-4.3-2.3-6-6.2-6.9
	c-9.1-2-18.1-4.4-27.2-6.5c-1.3-0.3-3.4-0.3-4.1,0.4c-3.8,4.3-7.2,8.9-11,13.7c2.8,1.6,4.6,2.7,7.1,4.1c-1.3,0.9-2.4,2.1-3,1.9
	c-6.7-2.3-13.4-4.9-20.1-7.4c0.1-0.6,0.2-1.2,0.2-1.8c1.1-0.2,2.3-0.8,3.3-0.6c4,0.7,6.4-1.1,8.8-4.1c13.7-18,27.7-35.8,41.4-53.8
	c2.1-2.8,4.1-3.8,7.5-2.8c6.7,2,13.6,3.3,20.2,5.5c1.9,0.6,4.1,3,4.5,4.9c4.6,22.3,8.8,44.6,13.3,66.9c0.6,2.8,0,6.7,4.9,6.7
	c0.7,0,1.4,2.4,2,3.6c-0.4,0.3-0.8,0.7-1.1,1c-17.3-3.1-34.6-6.2-51.9-9.3C397.8,985.3,397.9,984.4,398,983.5z M407.5,960.5
	c-2.9-12.7-5.4-23.9-8-35.2c-0.6,0-1.2-0.1-1.7-0.1c-7.2,8.3-14.3,16.6-22.3,25.8C386.5,954.3,396.3,957.2,407.5,960.5z"/>
<path fill="#FFFFFF" d="M876.9,331.6c4.4-4.8,8.1-8.6,11.4-12.7c0.8-1,0.6-3.5-0.1-4.9c-3.9-7.7-8-15.4-12.4-22.8
	c-0.8-1.4-3.3-2.6-5-2.6c-4.9,0.1-9.8,0.9-15.4,1.6c0.9,2.5,1.7,4.1,1.9,5.8c0.2,1.1-0.4,2.3-0.6,3.5c-1-0.5-2.5-0.6-3.1-1.4
	c-3.4-4.9-6.6-10-9.7-15.1c-0.6-0.9-0.1-2.5-0.2-3.8c1.1,0.5,2.7,0.7,3.1,1.6c2.2,4.2,5.5,4.4,9.7,3.9c17.8-2.4,35.6-4.6,53.3-6.8
	c5.8-0.7,11.5-1.6,17.3-1.9c1.5-0.1,3.7,1.4,4.5,2.8c3.6,6,6.6,12.3,10.2,18.3c1.6,2.8,1.3,4.5-0.7,7c-15.6,18.6-31,37.4-46.6,56.1
	c-2.2,2.6-3.6,5-2.7,8.6c0.2,0.9-1,2.3-1.6,3.4c-1.1-0.7-2.7-1.2-3.2-2.2c-7-16-13.9-32-20.7-48.1c-0.4-1,0.5-2.4,0.8-3.7
	c1,0.6,2.5,0.9,3,1.7C872.4,323.2,874.2,326.8,876.9,331.6z M916.7,285.1c-0.3-0.6-0.5-1.1-0.8-1.7c-11.3,1.5-22.6,2.9-35.3,4.5
	c4.4,8.4,8.2,15.7,12.6,24C901.6,302.4,909.1,293.8,916.7,285.1z"/>
<path fill="#FFFFFF" d="M534.4,99.9c-2.7-6.2-5.1-11.8-7.8-17.2c-0.4-0.7-2-1.2-3-1.2c-8,0-16,0.2-24,0.3c-4,0.1-6.4,1.7-7.6,5.7
	c-1.1,3.9-2.9,7.7-4.4,11.7c3.5,1.5,8.6,0.8,6.4,7c-7.3,0-14.7,0-23.8,0c1.6-2,2.5-4.2,3.6-4.3c3.9-0.4,5.1-3,6.5-6
	c9.6-21.6,19.4-43.1,28.9-64.7c1.6-3.7,3.5-5.5,7.8-5.1c5,0.5,10,0.3,15,0.2c3.5-0.1,5.4,1.3,6.6,4.6c8.7,22.5,17.7,44.9,26.4,67.3
	c1.5,3.8,3,6.9,7.7,7.2c0.9,0.1,1.6,1.9,2.4,2.9c-1.2,0.5-2.4,1.6-3.5,1.5c-13.6-1.1-27.1-2.4-40.7-3.6c-0.8-0.1-1.8,0-2.4-0.4
	c-1.1-0.7-2.3-1.7-2.7-2.8c-0.2-0.4,1.3-2,2.3-2.4C529.8,100.3,531.4,100.4,534.4,99.9z M524.5,77c-3.9-10.6-7.5-20.4-11.2-30.1
	c-0.6,0-1.2-0.1-1.8-0.1c-4.7,9.8-9.4,19.6-14.5,30.2C506.9,77,515.1,77,524.5,77z"/>
<path fill="#FFFFFF" d="M777.2,821.3c0.4-1.4,0.4-3.1,1.3-4.1c8.9-9.7,17.9-19.3,27-28.8c0.8-0.9,3-0.4,4.5-0.6
	c-0.1,1.4,0.4,3.4-0.3,4.1c-2.9,2.7-1.9,4.6,0.5,7c10.5,10.7,20.9,21.5,31.4,32.2c4.8,4.9,12.5,5.8,18.4,2.6
	c12.1-6.6,15.4-13.6,10.8-24.2c-1.2-2.9-3.7-5.5-6.1-7.7c-10.3-9.3-20.7-18.3-31.1-27.4c-4.9-4.3-4.9-4.4-8.9,0.8
	c-0.4,0.5-0.9,1-1.4,1.6c-4-1.8-4.4-4-1.6-7.2c3.8-4.6,7.4-9.3,11.1-13.9c4.1,2.1,4.1,2.1,0.8,9.5c5.6,4.9,11.4,9.9,17.1,14.8
	c4.8,4.1,9.4,8.5,14.5,12.3c7.1,5.3,10.9,12.6,13.1,20.7c1.9,7,0.6,13.9-4.6,19.4c-5.8,6.2-11.5,12.5-17.7,18.3
	c-3.4,3.2-7.6,5.9-11.7,8.2c-8.3,4.5-16,2.3-22.4-3.8c-10.8-10.4-21.3-21.1-31.9-31.7C784.5,817.6,784.6,817.6,777.2,821.3z"/>
<path fill="#FFFFFF" d="M634.7,125.2c-10.7-3.1-21.3-6.2-32-9.3c-4.5-1.3-9-2.2-13.5-3.5c-1-0.3-1.9-1.4-2.8-2.2
	c1-0.6,2.2-1.9,3.1-1.7c6.7,1.5,7.9-2.7,9.1-7.8c4.1-16.8,8.7-33.4,13.1-50.2c1.3-5.1,0.8-5.8-4.5-6c-4.6-0.2-9.4-1-13.9-0.4
	c-2.5,0.3-4.6,3-6.9,4.6c0.2,0.4,0.4,0.9,0.6,1.3c-1.4-0.3-2.7-0.7-4.4-1.1c1-4.7,1.7-9.2,3.1-13.3c0.5-1.3,3.2-3,4.6-2.8
	c26.6,4.5,52.7,10.7,78.1,20c4.1,1.5,5.1,3.4,3.5,7.3c-1,2.3-1.7,4.7-2.2,7.1c-0.9,4.6-3.2,4.9-7.1,2.3c3.7-6.5-0.9-8.7-5.8-11.3
	c-12.3-6.7-12.3-6.9-15.8,6.4c-4,15.4-7.9,30.9-12.1,46.3c-1.2,4.3-1.2,7.3,4,8.5C635.8,120.1,636.9,121.9,634.7,125.2z"/>
<path fill="#FFFFFF" d="M236.5,130.8c-4-8-9.3-5.3-14.3-2.2c-6.5,3.9-12.8,8.3-19.2,12.5c-3.8,2.5-4.6,5-0.8,8.6
	c4.9,4.7,9.4,10,13.7,15.3c4.1,5,7,1.2,10.1-0.9c2.8-2,5.5-4.2,2.1-8.1c-0.6-0.7-0.3-2.2-0.4-3.4c1.1,0.3,2.6,0.2,3.2,0.9
	c3.2,3.6,6.2,7.4,9.1,11.2c0.6,0.8,0.5,2,0.7,3.1c-1.2-0.1-2.4,0-3.5-0.3c-1.7-0.6-4.1-2.6-4.9-2c-3.1,2.2-5.7,5-8.3,7.7
	c-0.3,0.4,0.3,1.8,0.7,2.7c0.3,0.6,0.9,1,1.3,1.5c5.9,6.3,11.9,12.6,18.1,19.1c8.2-5.9,14.9-12.8,19.4-21.4c1.1-2-0.9-5.6-1.7-9.4
	c0.2-0.2,1.3-1.1,3.1-2.6c3.4,4.9,6.6,9.4,9.5,14.2c0.5,0.8-0.4,3.2-1.4,4c-10.4,8.5-21,17-31.6,25.2c-1.7,1.3-4.2,2-6.4,2.1
	c-5.5,0.3-11-0.1-16.5,0.2c-4.2,0.2-7.1-1.3-9.9-4.4c-10.1-11.6-20.4-22.9-30.6-34.3c-1.1-1.2-2.3-2.2-4.4-4.2
	c-2,2.7-3.8,5.1-5.4,7.3c-5.1-2.5-2.5-4.5-0.5-6.2c15.1-13.6,30.2-27.1,45.5-40.6c5.1-4.5,10.6-8.5,15.8-12.7
	C237.1,121.3,239.8,127.1,236.5,130.8z"/>
<path fill="#FFFFFF" d="M266.9,878.4c-5.8,12.6-9.1,16.3-12.8,14.6c0-0.2-0.1-0.4,0-0.5c2.8-6.9,1.6-9.9-5.7-12.6
	c-1.2-0.4-3.4,0.2-4.2,1.1c-5.8,6.2-11.4,12.6-17.1,18.8c-1.7,1.9-1.8,3.6,0.4,4.9c7.6,4.4,15.2,8.9,22.9,12.9
	c1.1,0.6,3.6-0.7,4.8-1.7c1.4-1.2,2.2-3.2,3.6-5.4c1.7,1,3.1,1.9,5,3.2c-3.3,5-6.4,9.7-9.9,14.8c-6.9-4.9-13.4-9.5-19.7-14.3
	c-12.9-9.7-25.8-19.5-38.6-29.3c-1.7-1.3-4.7-2.7-1.5-6c2.1,1.5,4.1,2.8,6.6,4.6c1.8-2.1,3.5-4.1,5.1-6.1
	c11.8-14.8,23.6-29.7,35.5-44.5c2.2-2.7,2.6-4.6-0.1-7.2c-1.1-1.1-1-3.3-0.3-5.3c18.6,14.1,37.1,28.3,56.2,42.7
	c-2.9,4.6-6,9.6-9.1,14.5c-3.6-0.7-4.4-2.6-2.7-5c3.1-4.3,1.6-7.8-1.6-11.1c-3.8-3.9-7.7-7.8-11.6-11.6c-2.5-2.3-4.7-1.6-6.7,1
	c-4.8,6.4-9.7,12.7-14.7,18.9c-1.7,2.2-1.5,3.9,0.8,5.4c3.3,2.2,6.2,6.8,10.9,1.8C263.1,876.7,265.4,878,266.9,878.4z"/>
<path fill="#FFFFFF" d="M654.9,975.9c-10.2,4.5-45.9,11.9-49,9.7c1.3-0.7,2.3-1.6,3.5-1.7c5.5-0.9,5.9-3.9,4.3-8.6
	c-1.4-4.1-2.6-8.3-3.2-12.5c-1.2-8.3-5.3-14.1-12.3-18.8c-9.5-6.4-18.4-13.8-27.7-20.5c-2-1.5-4.8-1.8-7.1-2.9
	c-1.3-0.6-2.4-1.5-3.6-2.2c1.2-0.9,2.2-2.4,3.5-2.7c10.3-1.9,20.6-3.5,31-5.2c4.3-0.7,8.5-1.5,12.8-2c1.3-0.1,2.8,0.8,4.2,1.3
	c-1.1,0.9-2.1,1.9-3.2,2.8c-0.5,0.4-1.1,0.5-2.5,1.2c1.2,1.5,1.9,2.9,3.1,3.8c6.7,5.2,13.5,10.3,20.2,15.5c1.8,1.4,3.5,2.1,4.8-0.6
	c4.1-8.9,8.3-17.8,12.3-26.7c0.6-1.2,0.3-2.8,0.4-4c-0.6-0.3-0.8-0.4-0.9-0.4c-2-0.8-5.3,2.8-6.1-1.4c-0.2-0.8,3.1-2.6,5-3.4
	c4.4-1.9,9-3.5,13.6-4.9c1.4-0.4,3.1,0.2,5,1.3c-7.6,2.9-8.8,9.8-11.3,15.6c-4.3,10.3-8.7,20.5-12.8,30.9c-0.8,2-1,4.6-0.5,6.6
	c1.7,7.6,4,15.1,5.7,22.7c0.8,3.6,2.2,5.2,6.2,4.2c1.5-0.4,3.4,0.8,5.1,1.3C655.3,974.7,655.1,975.3,654.9,975.9z"/>
<path fill="#FFFFFF" d="M767.7,825.5c3.6,4.5,7.3,8.5,10.3,13.1c0.7,1.1-0.9,3.6-2.1,5.9c-6.2-9.2-13-5-19.5-2.1
	c-3.8,1.7-7.3,3.9-10.9,5.9c-2.4,1.4-2.8,3.3-1.2,5.8c4.5,7,9,14,13.3,21.2c1.5,2.5,3.1,2.6,5.2,0.9c1.6-1.2,3.1-2.5,4.7-3.7
	c2.4-1.7,3.3-3.6,1.5-6.3c-1.5-2.2-0.9-4.1,1.5-4.7c1.3-0.3,3.5,0.2,4.4,1.1c3.3,3.7,6.3,7.7,9.7,12.1c-1.7,1.5-3.2,2.8-4.4,3.9
	c-2.4-1.4-5-3.9-6-3.4c-3.7,1.8-6.8,4.6-10.1,7.1c-0.3,0.2,0,1.6,0.4,2.3c4.8,8,9.6,15.9,14.1,23.3c4.3,0.4,7.2-7.1,11.4-0.3
	c-6.4,4.4-12.7,8.7-19,13c-6.5,4.4-13.1,8.6-19.5,13.1c-2.8,2-4.8,1.8-6.3-1.2c0.2-0.4,0.2-0.9,0.4-1c6.3-5.3,6.3-5.3,1.9-12.4
	c-9.5-15.7-19-31.3-28.3-47.1c-2.2-3.7-4.3-4.6-7.9-2.5c-0.8,0.5-1.8,1-2.8,1.1c-0.8,0.1-1.7-0.4-2.5-0.6c0.4-0.8,0.5-2,1.1-2.4
	c3.2-2.1,6.6-4,9.8-6C734.5,850.9,752.3,840.3,767.7,825.5z"/>
<path fill="#FFFFFF" d="M377.3,917.7c-2.4-0.7-3.8-1.1-5.1-1.6c0.1-8.3,0.1-8.3-6.9-13.3c-2.6-1.8-5.2-3.7-7.8-5.5
	c-0.4-0.3-0.9-0.3-1.9-0.7c-0.8,1.6-1.7,3.1-2.4,4.7c-7.7,17.4-15.3,34.7-22.9,52.1c-2.7,6.2-2.8,6.2,3.5,8.8
	c0.6,0.2,1.2,0.5,2.1,2.3c-1.4,0.4-3,1.4-4.1,1c-13.7-5.7-27.3-11.6-40.8-17.6c-0.9-0.4-1.3-2.1-1.9-3.2c1.1-0.2,2.4-0.7,3.4-0.4
	c7.2,2.3,7.1,2.3,10.1-4.7c7.2-17,14.4-34,21.6-51c2.2-5.2,2-5.8-3.7-6.9c-5.9-1.1-12-3.5-17.4,1.8c-0.5,0.5-2.6,0.2-3.5-0.4
	c-0.6-0.4-0.7-2.2-0.4-3c2-4.4,4.2-8.6,6.3-12.9c25.3,11.7,50.3,23.1,76.1,35C380.6,906.6,379,911.9,377.3,917.7z"/>
<path fill="#FFFFFF" d="M156.8,178.2c4.5,4.2,8.4,7.9,12.4,11.6c-1.8,3.6-3.6,5-7.1,2.3c-1-0.8-3.7-0.8-4.8-0.1
	c-4.7,3.1-9.2,6.6-13.6,10c-3,2.3-2.8,4.2,0.3,6.6c13.5,10.6,26.8,21.4,40.2,32.1c6.2,4.9,7.8,16.1,3.1,22.7
	c-3.7,5.3-7.4,10.7-11.4,15.8c-0.7,0.9-2.6,1-4,1.5c0.1-1.4-0.3-3.2,0.5-4.1c2.7-3.4,2.2-5.4-1.3-8.1c-15.3-11.8-30.4-23.9-45.4-36
	c-3.1-2.5-5.1-2.6-6.8,1.4c-1.3,3.1-3,5.9-4.3,9c-2.3,5.3-6.1,10.8,2.3,15.4c-0.4,0.5-0.8,0.9-1.2,1.4c-1.5,0-3.1,0.5-4.3-0.1
	c-13.6-6-14-6.8-5-18.5c14.2-18.7,28.9-37,43.4-55.4C151.7,183.2,154.1,181.1,156.8,178.2z"/>
<path fill="#FFFFFF" d="M909.8,457.1c-5.1-25.1-10.1-49.8-15.1-74.4c0.4-0.2,0.7-0.4,1.1-0.5c1.1,2,1.8,4.3,3.4,5.9
	c1.2,1.3,3.5,2.7,4.9,2.3c20-4.8,40-9.9,60-14.8c2.7-0.7,3.6-1.9,2.9-4.6c-0.6-2.2-0.8-4.5-1.2-6.7c0.4-0.3,0.8-0.7,1.2-1
	c1.1,0.9,2.8,1.7,3.1,2.9c4.2,14.9,8.2,29.8,12.2,44.7c0.8,3.2-0.9,4.2-4.1,4.1c-0.4-1.2-0.9-2.4-1.3-3.6c-2.1-6.6-2.1-6.6-9.1-4.8
	c-18,4.6-36,9.3-54.1,13.6c-4,1-4.9,2.9-4.1,6.3c1.3,5.3,2.6,10.6,4.3,15.9c1.3,4.3,4.2,6.5,9,6.3c1.5-0.1,4,1.2,4.4,2.4
	c1,2.8-1.2,3.6-3.6,4C919.1,455.6,914.6,456.3,909.8,457.1z"/>
<path fill="#FFFFFF" d="M685.2,61.4c1.5,0,3.3-0.5,4.5,0.1c13.2,5.9,26.4,11.9,39.5,18.1c1.3,0.6,1.9,2.8,2.8,4.3
	c-1.7,0.1-3.8,0.8-5.1,0.1c-3.8-2.1-5.5-0.9-7.2,2.7c-8,17.2-16,34.4-24.3,51.4c-1.9,3.9-1.9,6.3,2.3,8.3c1.3,0.7,1.9,2.8,2.9,4.2
	c-1.7,0.1-3.7,0.7-5.1,0.1c-13.2-6-26.3-12.2-39.3-18.4c-0.9-0.4-1.4-1.8-2.1-2.7c1.3-0.2,2.8-1.1,3.7-0.6c5.2,2.8,7.2,0.2,9.2-4.3
	c7.4-16.5,15.2-32.9,22.8-49.4c3.4-7.4,4-6.5-2.8-10.8c-0.7-0.4-1.3-1-1.9-1.5C685.1,62.5,685.2,61.9,685.2,61.4z"/>
<path fill="#FFFFFF" d="M48.2,379c5.4,1.4,11,2.9,16.6,4.3c14.5,3.7,29.1,7,43.5,11c5,1.4,7.6,0.5,8.7-4.5c0.2-0.7,0.8-1.4,2.6-2.4
	c0.5,1.5,1.7,3.1,1.4,4.4c-3.2,14.1-6.6,28.2-10.1,42.2c-0.3,1.3-2.2,2.1-3.3,3.2c-0.4-1.5-1.6-3.2-1.2-4.5c1.5-4.7-0.5-6.3-4.9-7.4
	c-18.9-4.8-37.6-9.8-56.4-15c-4-1.1-5.6-0.1-6.1,3.8c0,0.2-0.1,0.4-0.2,0.5c-1.1,1.3-2.2,2.6-3.4,3.9c-0.4-1.6-1.4-3.4-1.1-4.8
	c2.7-11,5.6-21.9,8.4-32.8c0.9-3.5,1.9-7,2.8-10.5C48.6,370.8,48.6,370.8,48.2,379z"/>
<path fill="#FFFFFF" d="M33.4,499.5c7.3,0,13-0.2,18.6,0.1c3.7,0.2,5.4-1.3,6.5-4.6c1.8-5.4,3.9-10.8,6.3-17.3
	c1.8,6.6,3.5,12,4.7,17.4c0.8,3.4,2.5,4.6,5.9,4.4c5.8-0.2,11.6-0.1,18.5-0.1c-5.7,4.2-10.3,7.9-15.2,11.2c-3.2,2.2-3.8,4.5-2.5,8
	c1.9,5.1,3.3,10.3,5.4,16.8c-5.2-4-9.5-7-13.4-10.4c-3.2-2.8-5.8-2.9-9.1-0.1c-4.7,3.9-9.7,7.3-15.5,11.7c2.3-6.6,3.9-12.2,6.2-17.5
	c1.9-4.2,0.6-6.7-2.8-9.1C42.8,507,38.7,503.6,33.4,499.5z"/>
<path fill="#FFFFFF" d="M931.4,543.2c2.4-7,4.3-13,6.5-18.8c1.1-3,0.5-5-2-6.8c-4.5-3.3-8.9-6.8-14.4-11.2c7,0,12.6-0.1,18.2,0.1
	c3.4,0.1,5.2-1.2,6.3-4.4c1.9-5.7,4-11.2,6.5-17.9c1.4,5.1,2.5,9.3,3.7,13.5c2.8,9.4,1,8.6,11.2,8.7c4.2,0,8.3,0,13.8,0
	c-5.6,4.2-10.2,7.8-15,11.1c-2.9,1.9-3.5,3.9-2.2,7.1c2.2,5.5,4.1,11.2,6.5,17.6c-5.8-4.2-10.8-7.8-15.6-11.5
	c-2.4-1.8-4.3-1.8-6.7,0C942.8,534.8,937.5,538.7,931.4,543.2z"/>
<path fill="#FFFFFF" d="M695.1,383.6c5,1.4,8.6,2.5,13.1,3.8c-0.3-0.8,0.2-0.2,0,0.1c-3.6,6-7.4,12-10.9,18.1
	c-1.3,2.4-1.8,5.2-2.8,7.8c-1.3,3.4-2.1,7.3-4.2,10.2c-3.5,4.7-6.2,8.9-2.9,14.9c0.9,1.7-0.3,4.5-1.2,6.7c-5.1-12-5.1-12-17.7-7.8
	c-1.1,0.4-2.2,0.8-3.3,1c-3.3,0.5-6.7-0.3-8.7,4.1c-2.6,5.8-2.5,10.6,1.6,15.6c2.3,2.8,4.6,3.6,7.8,1.8c1.2-0.7,2.4-1.4,3.6-1.6
	c1.4-0.3,2.8,0,4.2,0c-0.1,1.4,0.1,2.8-0.3,4.1c-1.4,4.4,0.2,6.3,4.7,5.6c7.6-1.2,8-0.8,7.1,6.7c-0.7,5.3,2.6,7,7.9,6.8
	c9.4-0.3,16-8.4,25.8-8.2c-1,1.6-1.8,3-3.4,5.7c2.5-0.7,4.1-0.7,5-1.5c4.6-4.2,8.4-1.3,11.9,1.4c5.4,4.3,10.4,9.2,15.8,13.6
	c1.6,1.3,3.8,2,5.8,2.6c4.7,1.6,7.6,4.3,7.8,9.7c0.1,1.3,1.8,3.2,3.2,3.7c5.6,1.9,12.1,2.3,16.9,5.3c4.1,2.6,6.9,7.8,9.4,12.3
	c0.8,1.5-0.6,5-2.1,6.6c-9.1,10.2-11.3,25.3-22.9,33.4c-11.1,7.7-21.1,17.2-34.3,21.6c-0.5,0.2-1,0.4-1.3,0.7
	c-8.2,8.4-18.9,13.1-28.8,19.1c-2.9,1.8-5,4.9-7.3,7.5c-1.1,1.2-1.9,2.8-2.8,4.1c-2.5,3.7-4.2,9.4-7.6,10.8
	c-8.2,3.3,1.9,7.5-1.3,10.5c-6.2-1.6-9-6.6-7.5-12.5c1-4,1.2-8.2,2.1-12.2c0.3-1.5,1.1-3.3,2.3-4.1c3.2-2.2,5-4.5,6.2-8.7
	c1.5-5.6,6-10.3,8.3-15.8c4.6-10.7,8.8-21.6,12.5-32.7c0.8-2.3-0.7-6.1-2.2-8.4c-2.5-3.7-4.5-6.8-4.4-12c0.1-6.7-1.7-13.5-3.5-20
	c-1.9-6.9-0.2-12.6,3.2-18.5c1.3-2.4,1.5-6.1,0.7-8.7c-1.8-5.4-5.3-5.6-9.7-0.5c-3.6-2.7-6.9-6.1-10.9-8.2c-6.2-3.3-12.8-8-19.2-8
	c-12.3,0-17.2-7.1-22.1-16.2c-1.8-3.4-5.5-5.9-7.9-9.1c-3-4.1-5.4-8.7-8.4-12.8c-1-1.3-3-1.9-4.6-2.8c0.2,1.7-0.2,3.7,0.6,5.1
	c2,4,4.4,7.8,6.7,11.6c-0.4,0.3-0.9,0.6-1.3,0.9c-1.6-2.5-3.4-4.9-4.9-7.4c-3.5-6.2-6.6-12.6-10.4-18.7c-3.5-5.7-3.4-11.7-2.4-17.8
	c0.8-4.7,0.5-9-2-13.4c-3.1-5.5-5.2-11.5-7.9-17.3c-4-8.5-9-10.7-18.5-9.2c-5.1,0.8-10.4,0.6-15.6,0.7c-0.7,0-1.3-0.6-1.8-1.8
	c1.4,0,2.8-0.1,4.1,0c4.1,0.5,6.1-1.2,4.9-4.8c-2-5.8,2.1-8.1,5.1-11.7c3.9-4.6,8.4-7.8,14.2-8.8c2.2-0.4,4.7,0.1,6.8,0.9
	c6.9,2.7,13.6,5.7,20.5,8.5c2.7,1.1,5.7,1.9,8.1,3.5c5,3.2,10.3,4.5,16.2,3.2c4.7-1,5.5-2.7,3.5-7c-0.7-1.6-1.3-3.3-1.9-4.9
	c0.4-0.4,0.7-0.7,1.1-1.1c5.1,3.5,10.2,7,15.6,10.7c-3.1,2.4-5.5,5-4,9.2c0.3,0.8-1.2,2.2-2,3.2c-3.8,4.6-3.2,8.2,2.2,10.4
	c6.5,2.7,13.2,4.9,20.2,7.5c1.5-6.8-1.6-11.8-5.1-16.8c-0.8-1.1-1.2-2.5-1.8-3.8c1.4-0.6,3-1.8,4.3-1.6c6.2,0.9,12.4,0.7,18.1,5.5
	c4.3,3.6,10.9,4.3,16.4,6.5c1.8,0.7,3.3,2.3,5,3.5c-1.4,1.5-2.6,3.5-4.4,4.4c-2,1-4.6,0.6-6.8,1.4
	C698.9,380.3,697.5,381.8,695.1,383.6z M674.5,397.4c3.4,0.9,6.3,1.6,10.3,2.7c-3-5.5-8.3-8-12.7-5.6c-2.4,1.3-3.4,5.1-5,7.8
	c0.9,0.7,1.8,1.4,2.8,2.2C671.4,402,672.9,399.8,674.5,397.4z M674.2,393.6c0.1-6.9-2.6-9.5-6.3-8.8c-2,2.9-3.3,4.8-5.4,7.8
	C666.7,393,670.4,393.3,674.2,393.6z"/>
<path fill="#FFFFFF" d="M684.4,346.1c-5.6,1.5-4.9,5.4-4.1,9.8c-5.3-0.7-10.2-1.3-15.5-2c0.3-1.2,0.3-2.3,0.8-3
	c1.8-3.2,0.6-5.2-2.4-6.2c-6.5-2.1-12.3-4.9-15.7-11.2c-0.5-1-2.3-1.2-3.4-1.9c-1.1-0.7-2.4-1.4-2.9-2.4c-1.7-3.2-3.1-6.7-4.1-8.9
	c1.5-1.4,3-2.7,4.4-4.1c0.2-0.2,0.1-0.9,0.3-0.9c7.4-2.6,9.4-14.6,20-11.7c7.5,2,16,1,22,7.4c0.2,0.2,0.5,0.5,0.8,0.6
	c12.8,1,13,12.2,16.8,20.6c1.2,2.7,3,5.1,4.4,7.7c0.7,1.4,1.7,3.4,1.2,4.4c-0.8,1.3-2.8,2.3-4.4,2.4c-7,0.5-13.3-2.1-18.2-6.8
	c-3.1-3-8.1-5-8.3-10.6c0-0.7-1.9-1.8-3.1-2c-5.1-0.7-10.2-1.4-15.3-1.6c-1.6-0.1-3.5,1.3-4.8,2.5c-2.6,2.4-1.9,4.5,1.5,5.3
	c1.6,0.4,3.3,0.7,4.9,0.7C669.4,334,675.6,341.8,684.4,346.1z"/>
<path fill="#FFFFFF" d="M525.3,333.3c3.8-2,7.7-3.9,11.4-6.1c4-2.3,7.7-4.9,11.7-7.2c3-1.7,6.1-3.3,9.4-4.4c1.7-0.6,3.8-0.3,5.7,0
	c2.3,0.4,4.5,1.3,6.7,2c3.5,1.1,8,7.4,7.8,11.5c-0.3,4.3-1.8,8.1-6.3,9.8c-2.9-6.8-2.8-6.3-10.9-4.7c-4.7,0.9-9.9-0.5-14.8-0.5
	c-4,0-8,0.7-12,0.9c-2.7,0.1-5.5,0-8.3,0C525.6,334.1,525.4,333.7,525.3,333.3z"/>
<path fill="#FFFFFF" d="M728.3,331.9c-6.2-2.2-11.6-4.1-17.2-6C715.9,320.8,723.9,323.3,728.3,331.9z"/>
<path fill="#FFFFFF" d="M637.1,347.7c-7.6,0.3-10.6-2.8-9.4-9.8c0.1-0.7,0.8-1.4,1.4-1.7c0.4-0.2,1.4,0.2,1.7,0.6
	c2.2,3.3,4.3,6.6,6.4,9.9C637.4,347,637.2,347.4,637.1,347.7z"/>
<path fill="#FFFFFF" d="M712.2,380.7c0.9-2,1.6-3.6,2.3-5c2.2,1.8,4.1,3.2,5.7,4.5C717.8,380.3,715.3,380.5,712.2,380.7z"/>
<path fill="#FFFFFF" d="M687.5,453.4c3.7,1.4,7.4,2.8,11,4.1c-0.2,0.5-0.4,0.9-0.6,1.4c-3.6-1.6-7.2-3.1-10.9-4.7
	C687.2,453.9,687.4,453.6,687.5,453.4z"/>
<path fill="#FFFFFF" d="M620.4,334.4c0.8,1.6,1.5,3.2,2.3,4.9c-0.8,0.3-1.5,0.7-2.3,1c-0.7-1.6-1.5-3.3-2.2-4.9
	C619,335.1,619.7,334.8,620.4,334.4z"/>
<path fill="#FFFFFF" d="M316.2,403.7c-0.7,1.3-1.4,2.6-2.2,3.8c-0.8,1.3-1.7,2.5-2.6,3.8c-0.9-1.2-2.5-2.3-2.7-3.6
	c-0.4-3.1,0.3-6.4-0.3-9.4c-0.3-1.5-2.6-2.5-4-3.8c-0.5,1.6-1,3.1-1.5,4.7c0,0.1,0.1,0.3,0.2,0.5c2.6,8.2,2.6,8.2-6,11.4
	c3.8-6.8-1.3-12.2-2.4-18.2c-0.5-2.9-3.6-4.6-7.2-3.6c-1.2,0.3-2.8,0.2-3.8-0.4c-3.9-2.1-6.8-1.8-9,2.5c-0.6,1.2-2.9,2.1-4.5,2.1
	c-3.1,0.1-6.3-0.5-10-0.8c-0.4-2.2-1.7-5-0.9-6.9c1.5-3.5,3.5-7.5,6.5-9.5c1.9-1.2,6.3,0.2,8.9,1.7c2.9,1.6,4.2,0.8,5.7-1.5
	c0.5-0.7,1-1.4,1.3-2.1c2.6-5.6,6.8-7.1,13.1-7.3c5.3-0.1,10.8-2.8,15.6-5.4c4.4-2.4,8.2-3.2,12.5-0.5c4.4-4.5,3.8-6.4-2.8-8.6
	c0.5-3.7,2.7-5.9,6.4-6.1c7.7-0.4,14.8-2.1,20.4-7.7c0.3-0.3,0.8-0.7,1.2-0.9c2.6-1.1,16.4,3.4,16.9,6c1.9,9.2,9,8.8,15.7,8.7
	c5-0.1,9.9-1,14.8-2.8c1.7,1.6,3.4,3.3,4.2,4c3.7-2.8,6.7-5.1,9.8-7.3c0.7-0.5,1.5-0.7,2.3-0.9c6.8-2.1,10.6-9.7,19.7-8.6
	c7.1,0.9,14.8-1.4,22-2.8c2.2-0.4,4.7-2.5,5.8-4.5c4.3-7.4,11.2-9.8,18.7-5.5c4.7,2.7,9.2,5.9,13.6,9.1c4.7,3.4,9.4,6.8,13.9,10.5
	c1.8,1.4,3,3.5,4.1,5.7c-8.7-0.6-16.1-2.9-19.8-12.3c-2.8,6.5-13.7,5-12.8,14.9c1.8,0,3.4,0,4.3,0c3.8,4.4,7.4,8.4,10.8,12.6
	c3.6,4.4,5.5,9.1,3.9,15.2c-1.2,4.7,0.3,9.6-1.9,14.7c-1.3,2.9,0.6,7.5,1.8,11.1c1.2,3.5,0.9,6-1.9,8.1c-2.1-3.1-3.9-6.2-6.3-8.8
	c-0.8-0.9-3.3-0.9-4.7-0.4c-0.9,0.3-1.9,2.7-1.5,3.5c0.6,1.2,2.4,1.7,3.8,2.7c0.2,0.7,0.2,2.3,0.8,3.6c3.1,6.1,5.1,12.5,3.4,19.1
	c-0.9,3.8-2.9,7.9-5.6,10.5c-3.1,2.9-7.3,4.6-6.2,10.1c-1.5-1.8-2.5-3.1-3.6-4.4c-1.3,1.8-3.6,3.6-3.6,5.4c0,3.6,1.2,7.2,2.1,10.7
	c1.6,6,0,10.3-5.6,12.6c-1.1,0.5-3.1-0.8-4.6-1.6c-2.3-1.3-3-6.7-7.2-2.9c-2.7,2.4-2.2,7.2,0.8,10.3c6.5,6.6,6.9,7.4,7.8,16.8
	c-5.8-3.8-7.6-9.6-9.5-15.4c-1.8-5.7-3.6-11.3-5.5-17.5c-4.8,2.7-6-0.1-7.4-3.6c-1.3-3.2-3.2-6.4-5.5-9c-2.8-3.2-6.5-2.3-9.5-0.2
	c-3.8,2.7-7.2,5.9-10.6,9.1c-1.1,1.1-1.7,2.8-2.3,4.3c-1,2.7-1.8,5.5-2.8,8.3c-0.9,2.6-2,5.2-3.8,8.1c-3.9-7.5-12.1-12.3-12.6-21.7
	c-0.2-3.2,0.1-6.6-4.4-7c-4.1-9.6-12.7-7.9-20.6-8.5c-2.2-0.1-4.4-1.9-6.5-2.9c-1.5-0.7-3-1.3-4.3-2.2c-1.6-1-3.2-2.1-4.7-3.3
	c-1.4-1-2.7-2.2-4.7-3.9c0.2,9,3.4,13.3,9.6,12.9c5.4-0.4,8.2,3.3,9,6.7c0.5,2.3-2.7,6.6-5.3,8.2c-5.9,3.6-12.3,6.4-18.7,9
	c-8.1,3.2-10.1,1.6-11.4-7.2c-0.4-2.4-1.9-4.7-3.2-6.9c-1.3-2.3-3.2-4.3-4.1-6.7c-1.4-3.4-2-7.1-3.4-10.4c-0.9-2.2-2.7-5.9-3.9-5.8
	c-3.7,0.2-3.5,3.9-3.2,6.6c0.3,2.8,1.1,5.5,1.9,8.1c1.4,4.9,2.9,9.7,4.4,14.6c0.2,0.6,0.3,1.3,0.7,1.8c3,3.8,5.9,7.7,9.1,11.4
	c3,3.5,6.7,3.8,10.8,1.8c2.5-1.3,5.2-2.2,8.6-3.7c-3.8,11.5-7.7,21.4-16.4,28.7c-4.6,3.9-8.4,8.6-12.8,12.7
	c-2.8,2.6-3.3,4.8-0.9,8.1c5,7.1,3.5,21-2.6,27c-3.6,3.6-3.6,7.8-1.8,11.9c1.4,3.1,0.4,4.8-1.9,6.9c-1.8,1.7-2.7,4.3-4.2,6.3
	c-1.9,2.5-3.6,5.3-6,7.3c-2.5,2-5.9,3-8.7,4.8c-4.5,2.9-5.9,2.8-8.2-2.3c-4.9-10.9-9.5-22-14.3-33c-0.9-2-1.8-4-3-5.7
	c-3-4.1-4.6-8-2.5-13.4c1.1-2.9,0.4-7-0.6-10.2c-1.9-5.8-4.8-11.3-7.2-16.9c-0.5-1.1-1.3-2.2-1.2-3.2c0.8-6.1-1.6-9.6-7-13
	c-3.8-2.4-6.9-3.1-10.9-3c-2.5,0.1-5-0.8-7.5-1.1c-1.9-0.3-3.9-0.2-5.7-0.8c-1.8-0.6-4.3-1.6-4.8-3c-2-5.2-2.8-10.9-5-16
	c-3.6-8.1-1.9-16-1.1-24.3c1.7-19,15.5-28,29-37.5c3.1-2.2,6.4-4.3,9.3-6.7c2.9-2.4,5.3-2.6,9-1c4.2,1.8,9.1,2.6,13.8,2.9
	c8.5,0.5,10.2,1.5,11.9,9.9c0.1,0.5,0.1,1.3,0.4,1.4c5.6,2.5,8.6,9,15.5,9.7c2.9,0.3,5.8,1.8,8.6,2.8c2.8,1,5.5,2.7,8.3,3.1
	c1.6,0.2,4.6-1.2,5-2.5c0.6-1.6-0.3-4.3-1.5-5.9c-1.7-2.2-4.9-3.3-6.1-5.6c-1.4-2.7-1.2-6.2-1.7-9.3
	C316.8,404.5,316.5,404.1,316.2,403.7z M340.8,358.5c-0.1-0.6-0.3-1.3-0.4-1.9c2-0.7,4-1.3,5.8-2.3c1.7-0.9,3.4-2.1,4.8-3.5
	c0.4-0.4-0.4-2.8-0.8-2.8c-2-0.2-4.5-0.7-6,0.3c-2.7,1.7-4.9,4.4-7.2,6.7c-3.6,3.7-6.4,8.3-12.9,7.8c-3.5-0.3-3,2.8-1.8,4.6
	c1.9,2.9,4.5,3.7,8.1,2.2c6.2-2.4,12.7-4,19-6.2c1.8-0.6,3.4-2.1,5.1-3.2c-0.2-0.6-0.4-1.1-0.7-1.7
	C349.5,358.5,345.1,358.5,340.8,358.5z M354.2,425c2.9-2.5,5.1-3.6,5.7-5.2c1-2.8,1.2-6,1.4-9.1c0.1-1.6-0.6-3.3-1-4.9
	c-2,1.1-4.2,2-5.8,3.5c-0.8,0.8-0.3,2.9-0.6,4.3c-0.4,1.8-1.3,3.5-1.4,5.3C352.6,420.4,353.4,422,354.2,425z M344.5,408.1
	c-0.1-4.1-5.4-7.8-8.9-7.5c-3.6,0.3-5.1,2.8-5.4,6.1c-0.2,1.6,7.9,5.3,10.9,4.5C342.7,410.8,343.8,408.8,344.5,408.1z"/>
<path fill="#FFFFFF" d="M510.8,502.5c0.6-2.1,1.2-4.2,1.9-6.6c2.1,0.2,4.6-0.3,4.9,3.5c0.4,3.8,2.9,4.7,6.1,3.1
	c3.1-1.5,5.2-0.7,7.4,1.8c2.5,2.8,5.5,5.1,8.3,7.5c6.7,5.7,9.8,13.5,13.3,22.1c-3-2.3-4.9-4.3-7.2-5.4c-6.3-2.9-12.8-5.2-19.1-8
	c-1.2-0.5-2.4-2.4-2.5-3.7c0-6.6-2-9-8.4-10.4c-2-0.4-3.8-1.8-5.8-2.8C510.1,503.3,510.5,502.9,510.8,502.5z"/>
<path fill="#FFFFFF" d="M342,533.8c4.2,4.5,5,10.1,2,15.3c-2.6,4.5-4.9,9-3.4,14.5c0.2,0.6-0.3,1.9-0.7,2c-0.8,0.2-1.9,0-2.6-0.4
	c-0.7-0.3-1.2-1.1-1.7-1.7c-3.8-4.8-2.7-20,1.7-24.3C338.8,537.6,340.2,535.8,342,533.8z"/>
<path fill="#FFFFFF" d="M480.3,506.8c-1.8-0.4-3.7-1.4-5.5-1.2c-4.9,0.5-5.4-3-6.1-6.2c-0.8-3.5,2.1-3.7,4.3-4.8
	c3.5-1.9,6.5-4.4,9.9-6.5c1.3-0.8,3.1-1,3.6-1.2c-0.2,3.5-0.3,6-0.5,8.6c-0.1,0.8-0.1,1.7-0.4,2.3
	C483.9,500.9,482.1,503.8,480.3,506.8z"/>
<path fill="#FFFFFF" d="M509,404.8c1.1-6.9,2.2-13.1,3.2-19.5c4.4,5.4,3.8,11.4,2.8,17.2c-1.1,6.8-8.4,7.1-12.9,10.4
	C504.7,409.9,507.2,406.9,509,404.8z"/>
<path fill="#FFFFFF" d="M441,494.5c9.9-2.3,22.5,10.6,20,19.2C455.1,506.7,452.7,496.6,441,494.5z"/>
<path fill="#FFFFFF" d="M307.9,348.3c-4.6,13.5-8.9,17.4-18.3,12.5c2.9-1,4.8-2.1,6.8-2.3c2.9-0.2,4.3-1.2,5.3-4.1
	c0.9-2.7,3.2-4.8,4.9-7.2C306.9,347.6,307.4,348,307.9,348.3z"/>
<path fill="#FFFFFF" d="M493.9,511.7c-0.4-0.4-1.7-1.4-3-2.5c-0.3,0.2-0.7,0.5-1,0.7c0.5,1.8,0.9,3.5,1.4,5.3
	c-2.8-1.9-3.8-5.6-2.3-9.2c2-4.8,6.2-4.9,10-5.5c-1.7,2.1-3.3,4.1-4.8,6C497.2,508,490.6,511.2,493.9,511.7z"/>
<path fill="#FFFFFF" d="M489.7,355.6c7.2,2,9.2,10.9,14.5,17c-1.8-1-4.1-1.7-5.3-3.2C495.5,364.7,492.4,359.6,489.7,355.6z"/>
<path fill="#FFFFFF" d="M285.7,355.1c1.9-1.7,3.6-3.7,5.8-5c1-0.6,2.9-0.4,4.1,0.1c0.8,0.3,1.6,2.1,1.3,2.8c-0.4,1-1.8,2-2.9,2.3
	c-2.6,0.5-5.4,0.6-8.1,0.9C286,355.8,285.9,355.5,285.7,355.1z"/>
<path fill="#FFFFFF" d="M514.8,377.6c-2.8,2.7-4.6,4.4-6.6,6.3c-1.2-2.5-2.4-5-3.7-7.9C507.9,376.5,510.9,377,514.8,377.6z"/>
<path fill="#FFFFFF" d="M320.7,324c-1.9,0.7-3.8,1.7-5.8,2c-1,0.1-2.1-1.2-3.2-1.9c1.1-0.8,2.1-2.3,3.2-2.4c1.8-0.1,3.7,0.6,5.6,1
	C320.6,323.2,320.6,323.6,320.7,324z"/>
<path fill="#FFFFFF" d="M499.1,476.5c0.7,3.5,1.4,7,2.2,11.2c-3-1.3-5.3-2.2-8.1-3.4C498.8,484.3,500.2,481.3,499.1,476.5z"/>
<path fill="#FFFFFF" d="M493.6,467c-2.6-1.6-4.9-8.2-3.8-9.6c0.4-0.5,1.5-0.8,2-0.6c0.5,0.2,0.9,1.3,0.9,2c0,1.2-0.6,2.5-0.5,3.7
	C492.4,463.7,493,465,493.6,467z"/>
<path fill="#FFFFFF" d="M465.8,515.7c3.5,1.3,7.5,2.8,12.6,4.6C470,520.6,466.1,518.6,465.8,515.7z"/>
<path fill="#FFFFFF" d="M507.1,500c-5.3-1.3-5.8-2.8-2.3-6.8C505.5,495.5,506.2,497.4,507.1,500z"/>
<path fill="#FFFFFF" d="M494.8,437.3c0.1,2.3,0.2,4.5,0.2,6.8c-0.6,0-1.8,0-1.8,0c-0.1-2.3-0.1-4.5-0.1-6.8
	C493.8,437.3,494.3,437.3,494.8,437.3z"/>
<path fill="#FFFFFF" d="M582.6,718.3c-10.1,0.8-19.2,4.5-28.5,8.4c-6,2.5-13.4,1.5-20.1,2.8c-18.7,3.6-37.3,7.6-55.9,12.4
	c8.2-3.5,16.3-7.3,24.7-10.3c8.4-3,17.1-5.6,25.8-7.4c8.9-1.8,18-2.6,27.1-3.6C564.8,719.6,573.7,719,582.6,718.3z"/>
<path fill="#FFFFFF" d="M573,792.5c-5.9,0.7-11.8,1.7-17.7,2c-12.8,0.8-24.5-3-35.6-9.4c-8.7-5-17.8-9.2-25.1-12.9
	c6.7-0.8,14.2,3.4,22.2,6.1c13.4,4.5,26.8,8.9,40.4,12.5c4.9,1.3,10.5,0.2,15.8,0.2C573.1,791.5,573.1,792,573,792.5z"/>
<path fill="#FFFFFF" d="M348.3,721.7c2.5,3.1,5.3,7.4,3.7,13c-0.7,0.2-1.3,0.5-2,0.7c-0.8-2.3-2-4.5-2.3-6.9
	C347.5,726.1,348.2,723.4,348.3,721.7z"/>
</svg>
