<?xml version="1.0" encoding="utf-8"?>
<!-- Generator: Adobe Illustrator 18.1.1, SVG Export Plug-In . SVG Version: 6.00 Build 0)  -->
<svg version="1.1" id="Layer_1" xmlns="http://www.w3.org/2000/svg" xmlns:xlink="http://www.w3.org/1999/xlink" x="0px" y="0px"
	 viewBox="0 0 612 412.2" enable-background="new 0 0 612 412.2" xml:space="preserve">
<path fill="#129269" d="M605.1,6.7C600.5,2.1,594.7,0,588.9,0H23.1C17.3,0,11.2,2.1,6.9,6.7C2.3,11.3,0.2,17.1,0.2,23v366.3
	c0,5.8,2.1,11.9,6.7,16.2c4.6,4.6,10.4,6.7,16.2,6.7h565.8c5.8,0,11.9-2.1,16.2-6.7c4.6-4.6,6.7-10.4,6.7-16.2V23
	C611.8,17.1,609.7,11.3,605.1,6.7z M572.1,372.4H39.6V39.8h532.4V372.4z"/>
<g>
	<path fill="#129269" d="M125.3,341.2c-1.2,0-2.4,0.6-3.4,1.5c-0.9,0.9-1.5,2.1-1.5,3.4v3.7h51.4v-3.7c0-1.2-0.6-2.4-1.5-3.4
		c-0.9-0.9-2.1-1.5-3.4-1.5H125.3z"/>
	<path fill="#129269" d="M188,281.8c-1.2,0-2.4,0.6-3.4,1.5s-1.5,2.1-1.5,3.4v63h51.4v-63c0-1.2-0.3-2.4-1.5-3.4
		c-0.9-0.9-2.1-1.5-3.4-1.5H188z"/>
	<path fill="#129269" d="M250.8,257.3c-1.2,0-2.4,0.3-3.4,1.5c-0.9,0.9-1.5,2.1-1.5,3.4v87.5h51.4v-87.5c0-1.2-0.6-2.4-1.5-3.4
		c-0.9-0.9-2.1-1.5-3.4-1.5H250.8z"/>
	<path fill="#129269" d="M313.5,267.4c-1.2,0-2.4,0.3-3.4,1.5c-0.9,0.9-1.5,2.1-1.5,3.4v77.4H360v-77.4c0-1.2-0.6-2.4-1.5-3.4
		c-0.9-0.9-2.1-1.5-3.4-1.5C355.4,267.4,313.5,267.4,313.5,267.4z"/>
	<path fill="#129269" d="M376.2,228.3c-1.2,0-2.4,0.6-3.4,1.5c-0.9,0.9-1.5,2.1-1.5,3.4v116.6h51.4V233.2c0-1.2-0.6-2.4-1.5-3.4
		c-0.9-0.9-2.1-1.5-3.4-1.5H376.2L376.2,228.3z"/>
	<path fill="#129269" d="M439,179.3c-1.2,0-2.4,0.6-3.4,1.5c-0.9,0.9-1.5,2.1-1.5,3.4v165.5h51.4V184.2c0-1.2-0.3-2.4-1.5-3.4
		c-0.9-0.9-2.1-1.5-3.4-1.5H439L439,179.3z"/>
	<path fill="#129269" d="M524.3,87.8c0.6-1.2,0.6-2.4-0.3-3.7c-0.9-0.9-2.1-1.5-3.4-1.2l-51.4,15c-0.9,0.3-1.8,0.9-2.1,2.1
		c-0.3,0.9,0,2.1,0.6,3.1l6.1,8L318.4,232.3l-86.3-36.4L88.3,332.3c-0.9,0.9-1.5,2.1-1.5,3.4s0.6,2.4,1.2,3.4l6.7,7
		c0.9,0.9,2.1,1.5,3.4,1.5c1.2,0,2.4-0.6,3.4-1.2l134.6-127.9l85.1,36.1l164.3-128.2l6.1,8c0.6,0.9,1.5,1.2,2.8,1.2s2.1-0.6,2.4-1.5
		L524.3,87.8z"/>
</g>
</svg>
