<?xml version="1.0" encoding="utf-8"?>
<!-- Generator: Adobe Illustrator 18.1.1, SVG Export Plug-In . SVG Version: 6.00 Build 0)  -->
<svg version="1.1" id="Layer_1" xmlns="http://www.w3.org/2000/svg" xmlns:xlink="http://www.w3.org/1999/xlink" x="0px" y="0px"
	 viewBox="4.7 0 9.4 9" enable-background="new 4.7 0 9.4 9" xml:space="preserve">
<path fill="#8C8B8B" d="M9.5,0.3c-2.3,0-4.1,1.8-4.1,4.1s1.8,4.1,4.1,4.1s4.1-1.8,4.1-4.1S11.8,0.3,9.5,0.3z M12.1,5.1h-1.9v1.9
	c0,0.2-0.2,0.3-0.3,0.3H9.2C9,7.4,8.9,7.3,8.9,7.1V5.1H7C6.8,5.1,6.6,5,6.6,4.8V4.2C6.6,4,6.8,3.8,7,3.8h1.9V1.9
	c0-0.2,0.2-0.3,0.3-0.3h0.6c0.2,0,0.3,0.2,0.3,0.3v1.9h1.9c0.2,0,0.3,0.2,0.3,0.3v0.6C12.5,5,12.3,5.1,12.1,5.1z"/>
<rect x="8.5" y="1.1" fill="#8C8B8B" width="2.6" height="2.8"/>
<rect x="8.2" y="5.1" fill="#8C8B8B" width="3.1" height="2.6"/>
</svg>
